<?xml version="1.0" encoding="UTF-8" standalone="no"?>
<!-- Created with Inkscape (http://www.inkscape.org/) -->

<svg
   width="202.18874mm"
   height="268.77011mm"
   viewBox="0 0 202.18874 268.77011"
   version="1.1"
   id="svg1074"
   inkscape:export-filename="bean2cup-logo.svg"
   inkscape:export-xdpi="96"
   inkscape:export-ydpi="96"
   xmlns:inkscape="http://www.inkscape.org/namespaces/inkscape"
   xmlns:sodipodi="http://sodipodi.sourceforge.net/DTD/sodipodi-0.dtd"
   xmlns="http://www.w3.org/2000/svg"
   xmlns:svg="http://www.w3.org/2000/svg">
  <sodipodi:namedview
     id="namedview1076"
     pagecolor="#ffffff"
     bordercolor="#000000"
     borderopacity="0.25"
     inkscape:showpageshadow="2"
     inkscape:pageopacity="0.0"
     inkscape:pagecheckerboard="0"
     inkscape:deskcolor="#d1d1d1"
     inkscape:document-units="mm"
     showgrid="false" />
  <defs
     id="defs1071" />
  <g
     inkscape:label="Layer 1"
     inkscape:groupmode="layer"
     id="layer1"
     transform="translate(-3.4972585,-12.787407)">
    <path
       d="m 103.17611,215.94376 c 11.72851,0 22.24072,-1.06051 29.82307,-2.78009 5.81182,-1.31215 9.40078,-2.37565 9.40078,-2.88194 0,-0.45536 -3.58896,-1.51588 -9.40078,-2.87896 -4.70038,-1.06351 -10.51521,-1.87235 -17.03406,-2.32773 v -8.49006 c 7.17791,0.50628 13.64582,1.41401 18.85251,2.57637 9.90706,2.2738 16.07239,6.16834 16.07239,11.12038 0,5.00596 -6.16533,8.84655 -16.07239,11.12336 -8.13658,1.86936 -19.35878,3.03172 -31.64152,3.03172 -12.282724,0 -23.454031,-1.16236 -31.64451,-3.03172 -9.907069,-2.27681 -16.021476,-6.1174 -16.021476,-11.12336 0,-4.95204 6.114407,-8.84658 16.021476,-11.12038 5.257616,-1.21328 11.728517,-2.07009 19.005275,-2.57637 v 8.49006 c -6.620683,0.45538 -12.432521,1.26422 -17.132909,2.32773 -5.814826,1.36308 -9.4547,2.4236 -9.4547,2.87896 0,0.50629 3.639874,1.56979 9.4547,2.88194 7.531416,1.71958 18.043641,2.78009 29.772144,2.78009 v 0"
       style="fill:#6b2c17;fill-opacity:1;fill-rule:nonzero;stroke:none;stroke-width:0.0299579"
       id="path24" />
    <path
       d="m 50.609021,221.55487 c -0.203715,-2.32474 1.461938,-4.34689 3.789672,-4.59854 2.324725,-0.2037 4.397817,1.51587 4.598533,3.84061 1.417009,15.11375 6.722553,28.40906 14.40674,37.86077 7.276775,8.99934 16.731475,14.40674 26.992044,14.40674 8.94544,0 17.08498,-4.39782 24.11011,-11.67758 8.08862,-8.43913 14.65839,-20.67394 19.05621,-34.32274 v 0 c 1.77051,-6.56976 6.31811,-11.06945 11.52479,-12.93881 2.52844,-0.96165 5.25461,-1.26422 7.88492,-0.91071 2.73215,0.35348 5.30854,1.46493 7.5314,3.3373 4.14619,3.43617 6.9772,9.40079 6.62369,18.24735 -0.2037,3.99337 -1.11442,8.13954 -2.68123,11.77643 -1.56679,3.74174 -3.78967,7.02812 -6.41697,9.40379 -3.03474,2.72916 -6.6237,4.64946 -10.41337,5.66204 -3.79266,1.00958 -7.83697,1.16237 -11.82736,0.35349 -2.27681,-0.45536 -3.74175,-2.67822 -3.28639,-4.95503 0.45536,-2.2738 2.67824,-3.78967 4.95204,-3.33431 2.63031,0.55422 5.35947,0.45237 7.93584,-0.25464 2.57938,-0.70701 5.00596,-1.97123 7.02813,-3.78968 1.66565,-1.51587 3.13358,-3.74174 4.24503,-6.36904 1.16237,-2.72916 1.86936,-5.81483 1.97123,-8.84656 0.25164,-5.86275 -1.26422,-9.50264 -3.4871,-11.37202 -1.01257,-0.80886 -2.12402,-1.31514 -3.33731,-1.46793 -1.2133,-0.20071 -2.57638,0 -3.8406,0.45536 -2.7801,1.01257 -5.20668,3.4871 -6.21925,7.17791 l -0.0479,0.20072 c -4.80226,14.91303 -12.03108,28.35812 -21.12929,37.81284 -8.54399,8.89749 -18.75364,14.30488 -30.17658,14.30488 -12.941804,0 -24.667315,-6.62369 -33.564804,-17.54033 C 58.137463,253.30123 52.172854,238.3882 50.609053,221.55487 v 0"
       style="fill:#6b2c17;fill-opacity:1;fill-rule:nonzero;stroke:none;stroke-width:0.0299579"
       id="path26" />
    <path
       d="m 105.85435,245.2126 c -13.496027,-0.50627 -13.849532,-13.54694 -44.277748,-10.36243 2.528441,9.30193 6.620683,17.43849 11.827364,23.80754 7.276775,8.99934 16.731475,14.40674 26.992044,14.40674 8.94544,0 17.08498,-4.39782 24.11011,-11.67758 5.50925,-5.76091 10.31151,-13.24137 14.20303,-21.73444 -27.2437,-0.45536 -20.92559,6.01555 -32.8548,5.56017 v 0"
       style="fill:#e9cab0;fill-opacity:1;fill-rule:evenodd;stroke:none;stroke-width:0.0299579"
       id="path28" />
    <path
       d="m 106.91486,254.86803 c -16.273126,-0.30256 -23.199385,-11.22222 -44.226825,-16.32705 2.576387,7.73214 6.21626,14.60748 10.715931,20.11673 7.276775,8.99934 16.731475,14.40674 26.992044,14.40674 8.94544,0 17.08498,-4.39782 24.11011,-11.67758 3.43616,-3.58896 6.6207,-7.88493 9.50264,-12.73808 -8.79563,4.34688 -17.84292,6.36903 -27.0939,6.21924 v 0"
       style="fill:#6f2317;fill-opacity:1;fill-rule:evenodd;stroke:none;stroke-width:0.0299579"
       id="path30" />
    <path
       d="m 103.58055,71.525815 c 19.20898,0 34.7751,21.785363 34.7751,48.678555 0,12.43552 -3.33432,23.81052 -8.79564,32.40245 -5.7609,8.94542 -12.33065,10.46428 -16.98311,19.00527 -4.19411,7.63327 -4.90112,14.8621 -4.90112,33.01059 0,2.32473 -1.9203,4.24503 -4.29595,4.24503 -2.37866,0 -4.298954,-1.9203 -4.298954,-4.24503 0,-19.41271 0.760917,-27.4504 5.104814,-35.73974 -0.20072,0 -0.40144,0 -0.60514,0 -19.259936,0 -34.826037,-21.78537 -34.826037,-48.67857 0,-26.893192 15.566101,-48.678555 34.826037,-48.678555 v 0"
       style="fill:#702317;fill-opacity:1;fill-rule:evenodd;stroke:none;stroke-width:0.0299579"
       id="path32" />
    <path
       d="m 122.99024,116.10914 c -1.46493,-14.35583 -8.89748,-25.476185 -17.23476,-26.638553 -5.10781,10.059856 -2.32772,20.218563 0.70701,31.138223 2.2738,8.19048 4.64946,16.73147 4.39782,25.98247 8.28934,-2.72916 13.59489,-15.7219 12.12993,-30.48214 v 0"
       style="fill:#e9cab0;fill-opacity:1;fill-rule:evenodd;stroke:none;stroke-width:0.0299579"
       id="path34" />
    <path
       d="m 105.44991,146.89385 c 0.3535,-8.79564 -1.9203,-17.03405 -4.09523,-24.87104 -3.031749,-10.91665 -5.86276,-21.17721 -2.273804,-31.288002 -7.177911,3.94246 -11.626664,16.024472 -10.209656,29.622352 1.417009,13.95138 8.490061,24.86803 16.57869,26.53669 v 0"
       style="fill:#e9cab0;fill-opacity:1;fill-rule:evenodd;stroke:none;stroke-width:0.0299579"
       id="path36" />
    <path
       d="m 122.99024,116.10914 c 1.46496,14.76024 -3.84059,27.75298 -12.12993,30.48214 -0.1019,4.09523 -0.76093,8.39119 -2.17495,12.78901 11.92923,-3.63987 20.92558,-19.81414 20.92558,-39.17592 0,-17.9957 -7.78306,-33.262224 -18.49899,-38.214263 -2.37566,2.477506 -4.09524,4.952039 -5.35647,7.48048 8.33728,1.162368 15.76983,12.282723 17.23476,26.638553 v 0"
       style="fill:#cf8053;fill-opacity:1;fill-rule:evenodd;stroke:none;stroke-width:0.0299579"
       id="path38" />
    <path
       d="m 105.44991,146.89385 c -8.088629,-1.66866 -15.161681,-12.58531 -16.57869,-26.53669 -1.417008,-13.59788 3.031745,-25.679892 10.209656,-29.622352 1.213284,-3.487103 3.184514,-6.926259 6.168314,-10.362427 -0.55721,-0.05095 -1.11143,-0.101904 -1.66864,-0.101904 -14.40676,0 -26.081336,17.893826 -26.081336,39.933843 0,21.63558 11.219218,39.22686 25.221536,39.93385 1.71958,-4.55059 2.52844,-8.94841 2.72916,-13.24437 v 0"
       style="fill:#cf8053;fill-opacity:1;fill-rule:evenodd;stroke:none;stroke-width:0.0299579"
       id="path40" />
    <path
       d="m 7.4906437,117.47521 c -2.171947,0 -3.9933851,-1.77051 -3.9933851,-3.99338 0,-2.17495 1.8214381,-3.94246 3.9933851,-3.94246 H 48.988296 c 2.174945,0 3.945451,1.76751 3.945451,3.94246 0,2.22287 -1.770506,3.99338 -3.945451,3.99338 H 7.4906437"
       style="fill:#6b2c17;fill-opacity:1;fill-rule:nonzero;stroke:none;stroke-width:0.0299579"
       id="path42" />
    <path
       d="m 174.19425,82.241742 c 2.02217,-0.808863 4.3469,0.152856 5.15576,2.225871 0.80887,2.022165 -0.14979,4.295965 -2.17495,5.104827 l -19.30785,7.732133 c -2.02216,0.80886 -4.29596,-0.20072 -5.10482,-2.22288 -0.80887,-2.02215 0.15285,-4.346885 2.17495,-5.155748 l 19.25691,-7.684203"
       style="fill:#6b2c17;fill-opacity:1;fill-rule:nonzero;stroke:none;stroke-width:0.0299579"
       id="path44" />
    <path
       d="m 170.75808,42.712336 c 1.56681,-1.566791 4.09226,-1.566791 5.60812,0 1.5698,1.515872 1.5698,4.044313 0,5.611103 l -29.31677,29.319768 c -1.56681,1.566807 -4.09226,1.566807 -5.61112,0 -1.5638,-1.566791 -1.5638,-4.044314 0,-5.611104 l 29.31977,-29.319767"
       style="fill:#6b2c17;fill-opacity:1;fill-rule:nonzero;stroke:none;stroke-width:0.0299579"
       id="path46" />
    <path
       d="m 101.05209,16.780802 c 0,-2.225871 1.77051,-3.993395 3.94246,-3.993395 2.22587,0 3.99638,1.767524 3.99638,3.993395 v 41.500641 c 0,2.174936 -1.77051,3.94246 -3.99638,3.94246 -2.17195,0 -3.94246,-1.767524 -3.94246,-3.94246 V 16.780802"
       style="fill:#6b2c17;fill-opacity:1;fill-rule:nonzero;stroke:none;stroke-width:0.0299579"
       id="path48" />
    <path
       d="m 201.74353,110.34823 c 2.17194,0 3.94246,1.76751 3.94246,3.94246 0,2.17195 -1.77052,3.99338 -3.94246,3.99338 h -41.50066 c -2.17494,0 -3.94245,-1.82143 -3.94245,-3.99338 0,-2.17495 1.76751,-3.94246 3.94245,-3.94246 h 41.50066"
       style="fill:#6b2c17;fill-opacity:1;fill-rule:nonzero;stroke:none;stroke-width:0.0299579"
       id="path50" />
    <path
       d="m 33.419191,47.7183 c -1.566801,-1.518862 -1.566801,-4.044314 0,-5.560186 1.518859,-1.569796 4.044311,-1.569796 5.611112,0 l 29.31977,29.316783 c 1.566808,1.566786 1.566808,4.044308 0,5.611099 -1.518861,1.566807 -4.044313,1.566807 -5.611103,0 L 33.419191,47.7183"
       style="fill:#6b2c17;fill-opacity:1;fill-rule:nonzero;stroke:none;stroke-width:0.0299579"
       id="path52" />
    <path
       d="m 131.42939,42.307896 c 0.86278,-2.022148 3.18752,-2.929875 5.20967,-2.073083 2.01916,0.808862 2.92989,3.136587 2.07009,5.155763 l -8.18749,19.059198 c -0.80886,2.022149 -3.1336,2.98081 -5.15575,2.124019 -2.02216,-0.859798 -2.93288,-3.187522 -2.12401,-5.209687 l 8.18749,-19.05621"
       style="fill:#6b2c17;fill-opacity:1;fill-rule:nonzero;stroke:none;stroke-width:0.0299579"
       id="path54" />
    <path
       d="m 156.0967,57.370727 c 1.5698,-1.566807 4.04431,-1.566807 5.61112,0 1.56679,1.518862 1.56679,4.044314 0,5.611104 l -14.65839,14.661376 c -1.56681,1.566807 -4.09226,1.566807 -5.61112,0 -1.5638,-1.566791 -1.5638,-4.044314 0,-5.611104 L 156.0967,57.370727"
       style="fill:#6b2c17;fill-opacity:1;fill-rule:nonzero;stroke:none;stroke-width:0.0299579"
       id="path56" />
    <path
       d="m 28.21251,117.47521 c -2.171947,0 -3.942459,-1.77051 -3.942459,-3.99338 0,-2.17495 1.770512,-3.94246 3.942459,-3.94246 h 20.775786 c 2.174945,0 3.945451,1.76751 3.945451,3.94246 0,2.22287 -1.770506,3.99338 -3.945451,3.99338 H 28.21251"
       style="fill:#6b2c17;fill-opacity:1;fill-rule:nonzero;stroke:none;stroke-width:0.0299579"
       id="path58" />
    <path
       d="m 33.017755,87.094917 c -2.022158,-0.85978 -2.932879,-3.184515 -2.073088,-5.206663 0.859791,-2.022165 3.184521,-2.932881 5.155751,-2.124018 l 19.107138,8.190479 c 1.971228,0.859798 2.929873,3.184516 2.073083,5.206681 -0.859791,2.022167 -3.187522,2.929877 -5.20968,2.073087 L 33.017755,87.094917"
       style="fill:#6b2c17;fill-opacity:1;fill-rule:nonzero;stroke:none;stroke-width:0.0299579"
       id="path60" />
    <path
       d="m 72.948608,44.279126 c -0.808862,-2.022148 0.203723,-4.295948 2.222882,-5.104811 2.025155,-0.808862 4.298955,0.152686 5.104811,2.174936 l 7.735139,19.256927 c 0.808862,2.022148 -0.203723,4.349889 -2.222882,5.158752 -2.022148,0.808863 -4.295965,-0.152856 -5.107817,-2.225871 L 72.948608,44.279126"
       style="fill:#6b2c17;fill-opacity:1;fill-rule:nonzero;stroke:none;stroke-width:0.0299579"
       id="path62" />
  </g>
</svg>
