<svg xmlns="http://www.w3.org/2000/svg" version="1.2" viewBox="0 0 35 52"><style>.s3{fill:#f2f2f3}</style><g id="Layer 1"><g id="&lt;Group&gt;"><g style="mix-blend-mode:multiply"><path id="&lt;Path&gt;" d="M7.4 28.2c2.4-1.8 5.9-5.2 9-11.2 4.4-8.5 9.7-12.4 12.8-14-5.5-3.5-14.4-1.5-21 5.2C1.4 14.9-.6 24 3.1 29.5c.4.5 1.1.7 1.7.4.7-.4 1.6-.9 2.6-1.7z" style="fill:#e3aa55"/></g><path d="M31.9 5.7c-.4-.6-1.1-.7-1.7-.4-.7.4-1.6.9-2.6 1.6-2.4 1.8-5.9 5.2-9 11.2-4.4 8.6-9.7 12.4-12.8 14q1.7 1 3.6 1.5c1.6.3 2.6 1.9 2.1 3.5q-.7 2-2 3.7c-.9 1.3-1.6 2.4-1.6 3.9 0 3.3 2.7 6 6 6 3.2 0 5.9-2.7 5.9-6 0-1.5-.7-2.6-1.6-3.9-1-1.3-1.7-2.8-2.2-4.3-.4-1.6.5-3.2 2-3.8 3.1-1.1 6.1-3 8.8-5.7 6.8-6.7 8.8-15.9 5.1-21.3z" style="fill:#603812"/><path d="M31.9 5.7c-.4-.6-1.1-.7-1.7-.4-.7.4-1.6.9-2.6 1.6-2.4 1.8-5.9 5.2-9 11.2-4.4 8.6-9.7 12.4-12.8 14q1.7 1 3.6 1.5c1.6.3 2.6 1.9 2.1 3.5q-.7 2-2 3.7c-.9 1.3-1.6 2.4-1.6 3.9 0 3.3 2.7 6 6 6 3.2 0 5.9-2.7 5.9-6 0-1.5-.7-2.6-1.6-3.9-1-1.3-1.7-2.8-2.2-4.3-.4-1.6.5-3.2 2-3.8 3.1-1.1 6.1-3 8.8-5.7 6.8-6.7 8.8-15.9 5.1-21.3z" style="fill:#4a1616"/><path d="M31.7 9.2c-.7 5.8-3.6 12.2-8.4 17.6q-2.2 2.4-4.5 4.3c2.2-1.1 4.3-2.7 6.3-4.6 5.2-5.3 7.6-12 6.6-17.3zM18.1 43.6c0 3.1-2.3 5.7-5.2 6.1q.4.1.8.1c2.8 0 5.1-2.3 5.1-5.1 0-1-.4-1.8-.9-2.6q.2.7.2 1.5z" class="s3"/></g></g></svg>